<svg xmlns="http://www.w3.org/2000/svg" width="2048" height="2048" viewBox="0 0 2048 2048" version="1.1">
	<path d="M 1017.784 702.484 C 1015.355 707.410, 1013.755 709.363, 1011.129 710.609 C 1006.609 712.754, 992.092 723.122, 989.383 726.141 C 986.383 729.483, 972.915 760.496, 969.034 773 C 967.241 778.775, 964.700 785.525, 963.388 788 C 959.940 794.501, 950.719 807.121, 947.852 809.261 C 944.569 811.713, 937.025 812.620, 908.480 813.996 C 888.275 814.971, 880.414 814.902, 858.980 813.567 C 828.799 811.687, 828.566 811.662, 805.500 807.848 C 770.579 802.074, 747.584 796.402, 711 784.538 C 691.863 778.332, 672.295 773.382, 659.500 771.511 C 640.756 768.769, 575.776 769.909, 569.844 773.083 C 567.650 774.258, 550.785 774.048, 514.500 772.397 C 504.831 771.957, 493.230 772.316, 477 773.555 C 458.450 774.972, 438.966 775.421, 384.500 775.686 C 247.824 776.350, 250.726 776.295, 247.723 778.263 C 242.146 781.916, 243.131 786.293, 251.248 793.920 C 260.805 802.899, 274.987 807.383, 298.885 808.980 C 326.591 810.833, 331.504 811.269, 332.882 811.997 C 333.773 812.468, 332.885 812.977, 330.382 813.428 C 328.247 813.813, 321.100 815.435, 314.500 817.032 C 303.125 819.785, 283.594 823.048, 258 826.474 C 229.402 830.301, 187.241 830.893, 150 827.990 C 116.555 825.383, 111.040 825.394, 107.635 828.073 C 103.365 831.431, 104.025 835.431, 109.755 840.934 C 117.887 848.743, 123.503 852.913, 128.087 854.546 C 134.809 856.942, 149.270 859.704, 161.424 860.913 C 175.267 862.291, 224.417 862.313, 245.873 860.952 C 254.879 860.381, 262.427 860.093, 262.647 860.314 C 264.206 861.873, 233.361 870.245, 210.500 874.468 C 180.773 879.959, 167.292 881.396, 120.500 884.057 C 102.544 885.079, 100.270 885.407, 98.250 887.272 C 94.390 890.835, 95.311 893.804, 102.377 900.563 C 105.884 903.919, 110.802 907.627, 113.306 908.804 C 127.034 915.257, 164.230 917.817, 195.843 914.484 C 212.499 912.728, 241.365 909.136, 245 908.367 C 249.794 907.353, 244.826 909.848, 233 914.395 C 218.418 920.002, 199.760 925.877, 180.090 931.056 C 163.733 935.363, 161.459 936.288, 156.127 940.797 C 151.953 944.327, 152.431 946.851, 158.043 950.917 C 166.906 957.336, 185.381 960.456, 206 959.014 C 213.425 958.495, 223.438 958.055, 228.250 958.035 L 237 958 237 961.953 C 237 966.082, 238.718 971, 240.161 971 C 240.622 971, 241 971.628, 241 972.396 C 241 974.729, 247.498 979.669, 253.543 981.930 C 263.433 985.630, 272.599 986.536, 286.325 985.171 C 293.021 984.504, 300.975 983.299, 304 982.491 C 307.025 981.684, 309.568 981.018, 309.652 981.012 C 309.736 981.005, 310.277 982.356, 310.855 984.013 C 311.432 985.670, 312.714 987.325, 313.703 987.690 C 314.691 988.054, 316.898 989.403, 318.608 990.687 C 320.317 991.970, 325.492 994.152, 330.108 995.535 C 339.475 998.342, 349.847 998.814, 363.362 997.048 C 371.777 995.948, 372.982 996.168, 373.032 998.809 C 373.070 1000.846, 375.323 1004, 376.739 1004 C 377.299 1004, 380.343 1005.557, 383.504 1007.460 C 394.460 1014.058, 412.348 1018.573, 423.962 1017.672 C 428.108 1017.351, 432.484 1016.798, 433.686 1016.444 C 435.575 1015.888, 435.962 1016.281, 436.537 1019.343 C 438.328 1028.894, 454.848 1038.355, 468.895 1037.875 L 475.290 1037.656 477.557 1042.078 C 480.318 1047.460, 483.535 1051, 485.666 1051 C 486.540 1051, 490.010 1052.349, 493.377 1053.997 C 502.749 1058.585, 509.772 1059.669, 517.039 1057.649 C 525.361 1055.335, 526.345 1055.506, 529.083 1059.736 C 530.413 1061.791, 532.328 1063.632, 533.339 1063.827 C 534.350 1064.022, 536.735 1065.238, 538.639 1066.530 C 546.813 1072.077, 560.190 1072.191, 570.917 1066.805 C 574.538 1064.987, 577.837 1063.350, 578.250 1063.167 C 578.663 1062.983, 579 1063.556, 579 1064.439 C 579 1066.906, 586.872 1074.885, 592.480 1078.102 C 598.014 1081.276, 605.383 1081.900, 613.972 1079.921 C 618.255 1078.934, 618.527 1079.009, 620.405 1081.695 C 623.875 1086.661, 633.417 1095.078, 636.250 1095.673 C 637.763 1095.990, 639 1096.632, 639 1097.099 C 639 1097.566, 640.328 1098.635, 641.950 1099.474 C 645.738 1101.433, 661.908 1101.534, 668.207 1099.638 C 672.719 1098.280, 672.737 1098.285, 674.436 1101.161 C 676.954 1105.424, 679.624 1106.691, 688.528 1107.852 C 699.738 1109.312, 711.881 1107.604, 717.138 1103.828 C 718.490 1102.857, 719.532 1103.300, 723.125 1106.375 C 726.313 1109.104, 728.075 1109.947, 729.725 1109.533 C 730.963 1109.222, 732.859 1109.520, 733.939 1110.194 C 737.896 1112.665, 759.472 1106.198, 763.620 1101.297 L 765.740 1098.793 770.344 1103.396 C 774.826 1107.878, 779.034 1109.372, 780.500 1107 C 780.840 1106.450, 782.456 1106, 784.092 1106 C 787.138 1106, 796.115 1101.991, 799.249 1099.232 C 800.857 1097.816, 801.468 1098.142, 806.871 1103.295 C 810.101 1106.377, 813.927 1109.146, 815.372 1109.449 C 816.817 1109.752, 819.044 1110.213, 820.319 1110.474 C 826.297 1111.694, 843.292 1106.761, 848.101 1102.408 C 849.590 1101.061, 850.062 1101.216, 852.801 1103.955 C 854.476 1105.630, 856.893 1107.014, 858.173 1107.032 C 859.453 1107.049, 861.374 1107.724, 862.441 1108.532 C 866.197 1111.372, 879.666 1109.871, 889.562 1105.508 L 894.624 1103.276 898.354 1106.269 C 903.730 1110.582, 913.142 1112.444, 919.708 1110.494 C 922.381 1109.700, 925.453 1108.237, 926.534 1107.243 C 927.615 1106.250, 930.183 1104.404, 932.240 1103.143 L 935.980 1100.849 941.530 1102.925 C 944.582 1104.067, 951.111 1105.551, 956.039 1106.222 L 965 1107.442 965.012 1110.971 C 965.018 1112.912, 965.673 1116.941, 966.468 1119.925 C 967.262 1122.909, 968.637 1129.009, 969.525 1133.481 L 971.138 1141.612 966.056 1168.056 C 959.346 1202.966, 954.517 1226.290, 950.332 1244 C 926.238 1345.969, 920.799 1384.674, 928.560 1398.932 C 930.077 1401.720, 931.624 1404, 931.998 1404 C 932.373 1404, 933.176 1405.091, 933.784 1406.425 C 934.392 1407.759, 936.920 1410.041, 939.402 1411.495 C 942.214 1413.143, 945.052 1415.989, 946.933 1419.046 C 951.778 1426.920, 957.414 1432, 961.304 1432 C 963.799 1432, 965.451 1432.886, 968.054 1435.619 C 972.149 1439.920, 976.546 1441.986, 981.718 1442.039 C 984.873 1442.071, 985.833 1442.610, 987.505 1445.289 C 990.500 1450.084, 995.382 1452.237, 1001.717 1451.553 C 1006.674 1451.018, 1007.046 1451.144, 1009.217 1454.095 C 1012.991 1459.228, 1018.367 1461.453, 1027 1461.457 C 1035.576 1461.461, 1038.906 1460.086, 1044.384 1454.279 C 1047.598 1450.873, 1048.175 1450.627, 1050.710 1451.582 C 1055.835 1453.511, 1065.928 1448.954, 1067.500 1444.001 C 1067.994 1442.443, 1069.013 1442, 1072.100 1442 C 1077.417 1442, 1081.789 1439.985, 1085.946 1435.619 C 1088.486 1432.951, 1090.223 1432, 1092.551 1432 C 1095.077 1432, 1096.736 1430.915, 1100.830 1426.586 C 1103.646 1423.609, 1106.708 1419.584, 1107.634 1417.642 C 1108.594 1415.629, 1110.543 1413.604, 1112.168 1412.930 C 1116.405 1411.175, 1124.964 1400.771, 1126.575 1395.418 C 1127.754 1391.498, 1127.744 1388.699, 1126.501 1376.166 C 1122.436 1335.190, 1121.845 1331.715, 1113.550 1300 C 1110.601 1288.725, 1107.189 1275, 1105.968 1269.500 C 1104.747 1264, 1101.795 1252.075, 1099.408 1243 C 1090.311 1208.408, 1088.737 1201.658, 1082.874 1172.102 L 1076.844 1141.703 1078.466 1133.527 C 1079.359 1129.030, 1080.738 1122.909, 1081.532 1119.925 C 1082.327 1116.941, 1082.982 1112.912, 1082.988 1110.971 L 1083 1107.442 1091.961 1106.222 C 1096.889 1105.551, 1103.418 1104.067, 1106.470 1102.925 L 1112.020 1100.849 1115.760 1103.143 C 1117.817 1104.404, 1120.385 1106.250, 1121.466 1107.243 C 1122.547 1108.237, 1125.619 1109.700, 1128.292 1110.494 C 1134.858 1112.444, 1144.270 1110.582, 1149.646 1106.269 L 1153.376 1103.276 1158.438 1105.508 C 1168.334 1109.871, 1181.803 1111.372, 1185.559 1108.532 C 1186.626 1107.724, 1188.547 1107.049, 1189.827 1107.032 C 1191.107 1107.014, 1193.524 1105.630, 1195.199 1103.955 C 1197.938 1101.216, 1198.410 1101.061, 1199.899 1102.408 C 1204.708 1106.761, 1221.703 1111.694, 1227.681 1110.474 C 1228.956 1110.213, 1231.183 1109.752, 1232.628 1109.449 C 1234.073 1109.146, 1237.899 1106.377, 1241.129 1103.295 C 1246.532 1098.142, 1247.143 1097.816, 1248.751 1099.232 C 1251.885 1101.991, 1260.862 1106, 1263.908 1106 C 1265.544 1106, 1267.160 1106.450, 1267.500 1107 C 1268.966 1109.372, 1273.174 1107.878, 1277.656 1103.396 L 1282.260 1098.793 1284.380 1101.297 C 1288.528 1106.198, 1310.104 1112.665, 1314.061 1110.194 C 1315.141 1109.520, 1317.037 1109.222, 1318.275 1109.533 C 1319.925 1109.947, 1321.687 1109.104, 1324.875 1106.375 C 1328.468 1103.300, 1329.510 1102.857, 1330.862 1103.828 C 1336.119 1107.604, 1348.262 1109.312, 1359.472 1107.852 C 1368.376 1106.691, 1371.046 1105.424, 1373.564 1101.161 C 1375.263 1098.285, 1375.281 1098.280, 1379.793 1099.638 C 1386.092 1101.534, 1402.262 1101.433, 1406.050 1099.474 C 1407.672 1098.635, 1409 1097.566, 1409 1097.099 C 1409 1096.632, 1410.237 1095.990, 1411.750 1095.673 C 1414.583 1095.078, 1424.125 1086.661, 1427.595 1081.695 C 1429.473 1079.009, 1429.745 1078.934, 1434.028 1079.921 C 1442.617 1081.900, 1449.986 1081.276, 1455.520 1078.102 C 1461.128 1074.885, 1469 1066.906, 1469 1064.439 C 1469 1063.556, 1469.338 1062.983, 1469.750 1063.167 C 1470.162 1063.350, 1473.462 1064.987, 1477.083 1066.805 C 1487.810 1072.191, 1501.187 1072.077, 1509.361 1066.530 C 1511.265 1065.238, 1513.650 1064.022, 1514.661 1063.827 C 1515.672 1063.632, 1517.587 1061.791, 1518.917 1059.736 C 1521.655 1055.506, 1522.639 1055.335, 1530.961 1057.649 C 1538.228 1059.669, 1545.251 1058.585, 1554.623 1053.997 C 1557.990 1052.349, 1561.460 1051, 1562.334 1051 C 1564.465 1051, 1567.682 1047.460, 1570.443 1042.078 L 1572.710 1037.656 1579.105 1037.875 C 1585.526 1038.094, 1592.787 1036.230, 1599.964 1032.519 C 1604.994 1029.918, 1610.708 1023.370, 1611.463 1019.343 C 1612.038 1016.281, 1612.425 1015.888, 1614.314 1016.444 C 1615.516 1016.798, 1619.892 1017.351, 1624.038 1017.672 C 1635.652 1018.573, 1653.540 1014.058, 1664.496 1007.460 C 1667.657 1005.557, 1670.701 1004, 1671.261 1004 C 1672.677 1004, 1674.930 1000.846, 1674.968 998.809 C 1675.018 996.168, 1676.223 995.948, 1684.638 997.048 C 1698.153 998.814, 1708.525 998.342, 1717.892 995.535 C 1722.508 994.152, 1727.683 991.970, 1729.392 990.687 C 1731.102 989.403, 1733.309 988.054, 1734.297 987.690 C 1735.286 987.325, 1736.568 985.670, 1737.145 984.013 C 1737.723 982.356, 1738.264 981.005, 1738.348 981.012 C 1738.432 981.018, 1740.975 981.684, 1744 982.491 C 1747.025 983.299, 1754.979 984.504, 1761.675 985.171 C 1775.401 986.536, 1784.567 985.630, 1794.457 981.930 C 1800.502 979.669, 1807 974.729, 1807 972.396 C 1807 971.628, 1807.378 971, 1807.839 971 C 1809.282 971, 1811 966.082, 1811 961.953 L 1811 958 1819.750 958.035 C 1824.563 958.055, 1834.575 958.495, 1842 959.014 C 1862.619 960.456, 1881.094 957.336, 1889.957 950.917 C 1895.569 946.851, 1896.047 944.327, 1891.873 940.797 C 1886.541 936.288, 1884.267 935.363, 1867.910 931.056 C 1848.240 925.877, 1829.582 920.002, 1815 914.395 C 1803.174 909.848, 1798.206 907.353, 1803 908.367 C 1806.635 909.136, 1835.501 912.728, 1852.157 914.484 C 1883.770 917.817, 1920.966 915.257, 1934.694 908.804 C 1937.198 907.627, 1942.116 903.919, 1945.623 900.563 C 1952.689 893.804, 1953.610 890.835, 1949.750 887.272 C 1947.730 885.407, 1945.456 885.079, 1927.500 884.057 C 1880.708 881.396, 1867.227 879.959, 1837.500 874.468 C 1814.639 870.245, 1783.794 861.873, 1785.353 860.314 C 1785.573 860.093, 1793.121 860.381, 1802.127 860.952 C 1823.583 862.313, 1872.733 862.291, 1886.576 860.913 C 1898.730 859.704, 1913.191 856.942, 1919.913 854.546 C 1924.497 852.913, 1930.113 848.743, 1938.245 840.934 C 1943.975 835.431, 1944.635 831.431, 1940.365 828.073 C 1936.960 825.394, 1931.445 825.383, 1898 827.990 C 1860.759 830.893, 1818.598 830.301, 1790 826.474 C 1764.406 823.048, 1744.875 819.785, 1733.500 817.032 C 1726.900 815.435, 1719.753 813.813, 1717.618 813.428 C 1715.115 812.977, 1714.227 812.468, 1715.118 811.997 C 1716.496 811.269, 1721.409 810.833, 1749.115 808.980 C 1773.013 807.383, 1787.195 802.899, 1796.752 793.920 C 1804.869 786.293, 1805.854 781.916, 1800.277 778.263 C 1797.274 776.295, 1800.176 776.350, 1663.500 775.686 C 1609.034 775.421, 1589.550 774.972, 1571 773.555 C 1554.770 772.316, 1543.169 771.957, 1533.500 772.397 C 1497.215 774.048, 1480.350 774.258, 1478.156 773.083 C 1472.224 769.909, 1407.244 768.769, 1388.500 771.511 C 1375.705 773.382, 1356.137 778.332, 1337 784.538 C 1300.863 796.257, 1274.959 802.592, 1239.500 808.381 C 1219.714 811.612, 1218.646 811.722, 1189.020 813.567 C 1167.586 814.902, 1159.725 814.971, 1139.520 813.996 C 1110.975 812.620, 1103.431 811.713, 1100.148 809.261 C 1097.281 807.121, 1088.060 794.501, 1084.612 788 C 1083.300 785.525, 1080.759 778.775, 1078.966 773 C 1075.085 760.496, 1061.617 729.483, 1058.617 726.141 C 1055.908 723.122, 1041.391 712.754, 1036.871 710.609 C 1034.245 709.363, 1032.645 707.410, 1030.216 702.484 C 1027.336 696.643, 1026.719 696, 1024 696 C 1021.281 696, 1020.664 696.643, 1017.784 702.484" stroke="none" fill="black" fill-rule="evenodd"/>
</svg>