<svg xmlns="http://www.w3.org/2000/svg" width="2048" height="2048" viewBox="0 0 2048 2048" version="1.1">
	<path d="M 1016.964 656.419 C 1015.334 660.014, 1014 663.387, 1014 663.913 C 1014 664.440, 1011.728 666.393, 1008.952 668.254 C 1003.914 671.631, 994.583 682.926, 991.094 689.871 C 990.092 691.867, 988.698 695.975, 987.997 699 C 985.238 710.903, 972.760 744.686, 968.052 753 C 965.404 757.675, 960.048 767.825, 956.148 775.556 C 949.939 787.866, 948.120 790.547, 941.505 797.141 C 933.179 805.440, 925.295 809.968, 911.500 814.376 C 900.643 817.844, 890.750 819.003, 872.178 818.983 C 851.087 818.959, 841.117 817.785, 817.500 812.542 C 787.979 805.988, 785.849 805.682, 769.500 805.648 C 753.300 805.614, 745.779 806.870, 725.500 812.995 C 720 814.656, 708.975 817.190, 701 818.625 C 665.470 825.019, 594.186 846.238, 550.959 863.289 C 541.907 866.860, 529.100 871.673, 522.500 873.984 C 509.132 878.665, 489.493 886.714, 481.038 890.978 C 477.992 892.514, 467.400 897.165, 457.500 901.314 C 447.600 905.463, 427.350 914.567, 412.500 921.545 C 397.650 928.524, 376.950 937.950, 366.500 942.492 C 317.813 963.653, 315.108 965.293, 320.109 970.616 C 323.511 974.237, 331.559 976.207, 341.788 975.921 C 347.362 975.766, 353.382 976.324, 358.500 977.470 C 364.719 978.863, 368.936 979.134, 377.444 978.690 C 385.418 978.274, 390.159 978.529, 394.918 979.633 C 399.688 980.739, 406.172 981.086, 418.974 980.921 C 428.613 980.796, 440.775 981.230, 446 981.886 C 453.314 982.804, 459.678 982.809, 473.658 981.909 L 491.816 980.740 499.970 983.370 C 507.686 985.859, 509.222 986, 528.601 986 C 558.588 986, 563.354 985.360, 603 976.016 C 617.154 972.680, 627.746 970.758, 634 970.392 C 639.225 970.086, 648.210 968.732, 653.967 967.385 C 659.724 966.037, 668.770 964.035, 674.069 962.937 L 683.703 960.941 689.976 964.486 C 698 969.022, 710.559 974.546, 716.149 976 C 718.542 976.622, 725.225 978.961, 731 981.199 C 736.775 983.436, 743.975 985.604, 747 986.017 C 750.025 986.430, 759.925 989.562, 769 992.977 C 791.698 1001.518, 795.559 1002.604, 798.833 1001.371 C 800.997 1000.556, 804.236 1001.191, 816 1004.736 C 824.458 1007.285, 834.042 1009.453, 839 1009.939 C 848.211 1010.841, 864.216 1014.525, 878.500 1019.029 C 904.562 1027.247, 914.050 1029.895, 919.407 1030.447 C 925.700 1031.094, 950.571 1039.017, 954.603 1041.659 C 957.202 1043.363, 957.054 1042.923, 964.500 1071 C 969.838 1091.129, 972.807 1099.894, 979.770 1116.087 C 985.318 1128.988, 986.815 1134.693, 990.379 1156.500 C 991.727 1164.750, 995.144 1182.300, 997.973 1195.500 C 1000.801 1208.700, 1003.960 1224, 1004.992 1229.500 C 1006.023 1235, 1007.973 1242.425, 1009.323 1246 C 1010.674 1249.575, 1013.179 1256.688, 1014.890 1261.807 L 1018 1271.114 1018.087 1317.807 C 1018.206 1381.700, 1019.233 1421.894, 1020.820 1424.750 C 1021.508 1425.987, 1022.939 1427, 1024 1427 C 1025.061 1427, 1026.492 1425.987, 1027.180 1424.750 C 1028.767 1421.894, 1029.794 1381.700, 1029.913 1317.807 L 1030 1271.114 1033.110 1261.807 C 1034.821 1256.688, 1037.326 1249.575, 1038.677 1246 C 1040.027 1242.425, 1041.977 1235, 1043.008 1229.500 C 1044.040 1224, 1047.199 1208.700, 1050.027 1195.500 C 1052.856 1182.300, 1056.273 1164.750, 1057.621 1156.500 C 1061.188 1134.670, 1062.684 1128.980, 1068.245 1116.087 C 1075.376 1099.550, 1077.417 1093.394, 1084.489 1067.086 C 1089.607 1048.048, 1091.216 1043.345, 1093.102 1041.923 C 1096.552 1039.321, 1121.880 1031.136, 1128.631 1030.442 C 1133.954 1029.895, 1143.461 1027.240, 1169.500 1019.029 C 1183.784 1014.525, 1199.789 1010.841, 1209 1009.939 C 1213.958 1009.453, 1223.542 1007.285, 1232 1004.736 C 1243.764 1001.191, 1247.003 1000.556, 1249.167 1001.371 C 1252.441 1002.604, 1256.302 1001.518, 1279 992.977 C 1288.075 989.562, 1297.975 986.430, 1301 986.017 C 1304.025 985.604, 1311.225 983.436, 1317 981.199 C 1322.775 978.961, 1329.458 976.622, 1331.851 976 C 1337.441 974.546, 1350 969.022, 1358.024 964.486 L 1364.297 960.941 1373.931 962.937 C 1379.230 964.035, 1388.276 966.037, 1394.033 967.385 C 1399.790 968.732, 1408.775 970.086, 1414 970.392 C 1420.254 970.758, 1430.846 972.680, 1445 976.016 C 1484.646 985.360, 1489.412 986, 1519.399 986 C 1538.778 986, 1540.314 985.859, 1548.030 983.370 L 1556.184 980.740 1574.342 981.909 C 1588.322 982.809, 1594.686 982.804, 1602 981.886 C 1607.225 981.230, 1619.387 980.796, 1629.026 980.921 C 1641.828 981.086, 1648.312 980.739, 1653.082 979.633 C 1657.841 978.529, 1662.582 978.274, 1670.556 978.690 C 1679.064 979.134, 1683.281 978.863, 1689.500 977.470 C 1694.618 976.324, 1700.638 975.766, 1706.212 975.921 C 1716.441 976.207, 1724.489 974.237, 1727.891 970.616 C 1732.892 965.293, 1730.187 963.653, 1681.500 942.492 C 1671.050 937.950, 1650.350 928.524, 1635.500 921.545 C 1620.650 914.567, 1600.400 905.463, 1590.500 901.314 C 1580.600 897.165, 1570.008 892.514, 1566.962 890.978 C 1558.507 886.714, 1538.868 878.665, 1525.500 873.984 C 1518.900 871.673, 1506.093 866.860, 1497.041 863.289 C 1473.728 854.094, 1443.984 844.195, 1411.500 834.822 C 1376.644 824.764, 1365.334 821.924, 1347 818.625 C 1339.025 817.190, 1328 814.656, 1322.500 812.995 C 1302.221 806.870, 1294.700 805.614, 1278.500 805.648 C 1262.151 805.682, 1260.021 805.988, 1230.500 812.542 C 1206.883 817.785, 1196.913 818.959, 1175.822 818.983 C 1157.250 819.003, 1147.357 817.844, 1136.500 814.376 C 1122.705 809.968, 1114.821 805.440, 1106.495 797.141 C 1099.880 790.547, 1098.061 787.866, 1091.852 775.556 C 1087.952 767.825, 1082.594 757.675, 1079.944 753 C 1075.249 744.719, 1061.162 706.410, 1059.551 697.547 C 1059.156 695.372, 1057.989 691.939, 1056.958 689.917 C 1053.490 683.120, 1044.157 671.693, 1039.511 668.557 C 1035.681 665.971, 1034.361 664.184, 1031.689 657.973 L 1028.475 650.500 1024.202 650.191 L 1019.928 649.882 1016.964 656.419 M 991.539 716.750 C 989.681 724.282, 980.390 748.940, 977.724 753.412 C 973.583 760.359, 964.822 777.173, 965.196 777.454 C 971.069 781.861, 986.905 790.033, 994.989 792.828 L 1005.500 796.461 1024 796.461 L 1042.500 796.461 1053.011 792.828 C 1061.095 790.033, 1076.931 781.861, 1082.804 777.454 C 1083.183 777.169, 1074.396 760.326, 1070.152 753.202 C 1067.416 748.610, 1058.472 724.782, 1056.469 716.750 C 1055.565 713.126, 1054.607 713.281, 1052.018 717.471 C 1046.718 726.047, 1032.407 735, 1024 735 C 1015.593 735, 1001.282 726.047, 995.982 717.471 C 993.393 713.281, 992.433 713.125, 991.539 716.750 M 959.336 789.643 C 958.960 790.664, 957.337 794.650, 955.729 798.500 C 953.037 804.944, 952.090 809.089, 948.920 828.309 C 947.553 836.601, 947.743 836.881, 958.713 842.721 C 968.290 847.821, 977.221 851.085, 991.522 854.714 C 1001.850 857.335, 1003.773 857.500, 1024 857.500 C 1044.227 857.500, 1046.150 857.335, 1056.478 854.714 C 1070.779 851.085, 1079.710 847.821, 1089.287 842.721 C 1100.257 836.881, 1100.447 836.601, 1099.080 828.309 C 1095.910 809.089, 1094.963 804.944, 1092.271 798.500 C 1090.663 794.650, 1089.040 790.664, 1088.664 789.643 C 1088.049 787.971, 1087.580 788.147, 1083.987 791.393 C 1081.791 793.377, 1079.520 795, 1078.941 795 C 1078.362 795, 1073.301 796.987, 1067.694 799.416 C 1048.394 807.777, 1044.916 808.500, 1024 808.500 C 1003.084 808.500, 999.606 807.777, 980.306 799.416 C 974.699 796.987, 969.638 795, 969.059 795 C 968.480 795, 966.209 793.377, 964.013 791.393 C 960.420 788.147, 959.951 787.971, 959.336 789.643 M 781 828.696 C 774.695 829.373, 749.478 834.878, 738.373 838.001 C 732.393 839.682, 721.200 842.415, 713.500 844.073 C 684.969 850.216, 665.119 856.518, 642.383 866.653 C 629.429 872.427, 629.189 872.594, 623.174 880 C 619.824 884.125, 615.530 889.300, 613.632 891.500 L 610.182 895.500 613.591 898.635 C 617.537 902.263, 617.975 905.783, 615.414 913.297 C 613.492 918.939, 614.684 923.820, 618.768 927.032 C 620.949 928.748, 622.244 928.988, 626.462 928.461 C 630.774 927.923, 631.809 928.132, 633.371 929.857 C 635.997 932.759, 640.208 933.375, 647.510 931.923 C 655.464 930.342, 657.362 931.408, 656.814 937.151 L 656.455 940.913 661.491 941.542 C 666.793 942.205, 668.205 941.794, 683.671 935.096 C 689.170 932.714, 691.395 932.200, 693.212 932.891 C 696.875 934.283, 698.309 936.595, 697.615 939.991 C 697.277 941.646, 696.731 944.304, 696.402 945.897 C 695.859 948.524, 696.397 949.269, 702.152 953.869 C 712.785 962.367, 742.613 975.727, 748.379 974.574 C 750.435 974.163, 753.285 974.871, 757.907 976.942 C 771.565 983.063, 794.391 991.009, 795.404 989.996 C 797.184 988.216, 800.978 988.918, 817.371 994.057 C 830.941 998.312, 834.247 999.012, 838.207 998.469 C 841.662 997.996, 844.322 998.341, 848.207 999.769 C 851.118 1000.839, 857.100 1002.489, 861.500 1003.435 C 869.880 1005.239, 871.619 1005.765, 897.534 1014.356 C 909.703 1018.390, 915.227 1019.725, 920.456 1019.894 C 924.244 1020.016, 928.954 1020.815, 930.922 1021.669 C 932.890 1022.523, 938.775 1024.673, 944 1026.447 C 949.225 1028.221, 954.288 1030.020, 955.250 1030.443 C 956.404 1030.951, 957 1030.780, 957 1029.941 C 957 1029.242, 954.078 1016.931, 950.506 1002.584 C 940.295 961.574, 935.541 938.049, 934.121 921.500 C 933.092 909.510, 934.140 870.103, 935.862 856 C 936.433 851.325, 937.070 844.935, 937.278 841.800 C 937.647 836.244, 937.579 836.067, 934.578 834.800 C 932.546 833.942, 927.423 833.552, 919.500 833.653 C 859.251 834.419, 856.437 834.383, 845 832.700 C 818.497 828.799, 794.194 827.279, 781 828.696 M 1228 829.500 C 1221.125 830.264, 1209.875 831.691, 1203 832.671 C 1193.002 834.097, 1185.496 834.387, 1165.500 834.124 C 1151.750 833.942, 1135.100 833.728, 1128.500 833.647 C 1120.588 833.550, 1115.451 833.943, 1113.422 834.800 C 1110.421 836.067, 1110.353 836.244, 1110.722 841.800 C 1110.930 844.935, 1111.567 851.325, 1112.138 856 C 1113.860 870.103, 1114.908 909.510, 1113.879 921.500 C 1112.459 938.049, 1107.705 961.574, 1097.494 1002.584 C 1093.922 1016.931, 1091 1029.242, 1091 1029.941 C 1091 1030.780, 1091.596 1030.951, 1092.750 1030.443 C 1093.713 1030.020, 1098.775 1028.221, 1104 1026.447 C 1109.225 1024.673, 1115.110 1022.523, 1117.078 1021.669 C 1119.046 1020.815, 1123.756 1020.016, 1127.544 1019.894 C 1132.773 1019.725, 1138.297 1018.390, 1150.466 1014.356 C 1176.381 1005.765, 1178.120 1005.239, 1186.500 1003.435 C 1190.900 1002.489, 1196.882 1000.839, 1199.793 999.769 C 1203.678 998.341, 1206.338 997.996, 1209.793 998.469 C 1213.753 999.012, 1217.059 998.312, 1230.629 994.057 C 1247.022 988.918, 1250.816 988.216, 1252.596 989.996 C 1253.609 991.009, 1276.435 983.063, 1290.093 976.942 C 1294.715 974.871, 1297.565 974.163, 1299.621 974.574 C 1305.387 975.727, 1335.215 962.367, 1345.848 953.869 C 1352.751 948.351, 1352.390 949.485, 1350.348 939.741 C 1349.693 936.610, 1351.225 934.245, 1354.788 932.891 C 1356.605 932.200, 1358.830 932.714, 1364.329 935.096 C 1379.795 941.794, 1381.207 942.205, 1386.509 941.542 L 1391.545 940.913 1391.186 937.151 C 1390.638 931.408, 1392.536 930.342, 1400.490 931.923 C 1407.792 933.375, 1412.003 932.759, 1414.629 929.857 C 1416.191 928.132, 1417.226 927.923, 1421.538 928.461 C 1425.756 928.988, 1427.051 928.748, 1429.232 927.032 C 1433.316 923.820, 1434.508 918.939, 1432.586 913.297 C 1430.025 905.783, 1430.463 902.263, 1434.409 898.635 L 1437.818 895.500 1434.368 891.500 C 1432.470 889.300, 1428.176 884.125, 1424.826 880 C 1418.811 872.594, 1418.571 872.427, 1405.617 866.653 C 1382.881 856.518, 1363.031 850.216, 1334.500 844.073 C 1326.800 842.415, 1315.634 839.690, 1309.688 838.017 C 1303.741 836.344, 1292.491 833.597, 1284.688 831.911 C 1267.421 828.182, 1247.499 827.335, 1228 829.500 M 946.574 847.880 C 943.379 853.049, 940.901 903.397, 942.845 923.617 C 944.021 935.839, 952.606 979.483, 959.936 1010.500 C 960.976 1014.900, 962.133 1020.862, 962.507 1023.749 C 962.881 1026.636, 963.553 1029.224, 964 1029.500 C 964.447 1029.776, 965.137 1032.358, 965.533 1035.238 C 966.500 1042.271, 977.322 1082.496, 980.938 1092.500 C 982.529 1096.900, 985.266 1103.875, 987.022 1108 C 992.576 1121.054, 996.982 1134.373, 996.991 1138.140 C 997.003 1143.049, 1003.916 1178.566, 1010.393 1207 C 1011.208 1210.575, 1012.610 1218, 1013.510 1223.500 C 1014.410 1229, 1016.913 1238.993, 1019.073 1245.707 C 1021.233 1252.421, 1023 1258.609, 1023 1259.457 C 1023 1260.306, 1023.450 1261, 1024 1261 C 1024.550 1261, 1025 1260.306, 1025 1259.457 C 1025 1258.609, 1026.767 1252.421, 1028.927 1245.707 C 1031.087 1238.993, 1033.590 1229, 1034.490 1223.500 C 1035.390 1218, 1036.795 1210.575, 1037.613 1207 C 1043.855 1179.730, 1050.997 1142.974, 1051.009 1138.057 C 1051.018 1134.363, 1055.463 1120.961, 1060.978 1108 C 1065.516 1097.336, 1069.609 1085.700, 1071.883 1077 C 1072.961 1072.875, 1075.621 1062.975, 1077.794 1055 C 1079.968 1047.025, 1082.070 1038.138, 1082.467 1035.251 C 1082.863 1032.364, 1083.553 1029.776, 1084 1029.500 C 1084.447 1029.224, 1085.119 1026.636, 1085.493 1023.749 C 1085.867 1020.862, 1087.024 1014.900, 1088.064 1010.500 C 1095.394 979.483, 1103.979 935.839, 1105.155 923.617 C 1107.099 903.397, 1104.621 853.049, 1101.426 847.880 C 1101.173 847.471, 1098.612 848.705, 1095.733 850.621 C 1092.855 852.537, 1086 856.352, 1080.500 859.098 C 1066.266 866.205, 1053.448 868.290, 1024 868.290 C 994.552 868.290, 981.734 866.205, 967.500 859.098 C 962 856.352, 955.145 852.537, 952.267 850.621 C 949.388 848.705, 946.827 847.471, 946.574 847.880 M 1012.799 1122.750 C 1008.916 1126.897, 1008.567 1129.385, 1010.820 1136.841 C 1013.297 1145.038, 1015.485 1166.837, 1014.529 1173.792 C 1013.882 1178.492, 1014.043 1179.135, 1016.411 1181.330 C 1017.835 1182.650, 1019 1184.815, 1019 1186.142 C 1019 1189.356, 1021.656 1193, 1024 1193 C 1026.344 1193, 1029 1189.356, 1029 1186.142 C 1029 1184.815, 1030.165 1182.650, 1031.589 1181.330 C 1033.957 1179.135, 1034.118 1178.492, 1033.471 1173.792 C 1032.515 1166.837, 1034.703 1145.038, 1037.180 1136.841 C 1039.433 1129.385, 1039.084 1126.897, 1035.201 1122.750 C 1032.257 1119.606, 1029.982 1119.311, 1026.465 1121.615 C 1024.196 1123.102, 1023.804 1123.102, 1021.535 1121.615 C 1018.018 1119.311, 1015.743 1119.606, 1012.799 1122.750" stroke="none" fill="black" fill-rule="evenodd"/>
</svg>